<?xml version="1.0" encoding="UTF-8" standalone="no"?>
<svg
   xmlns:dc="http://purl.org/dc/elements/1.1/"
   xmlns:cc="http://creativecommons.org/ns#"
   xmlns:rdf="http://www.w3.org/1999/02/22-rdf-syntax-ns#"
   xmlns:svg="http://www.w3.org/2000/svg"
   xmlns="http://www.w3.org/2000/svg"
   xmlns:xlink="http://www.w3.org/1999/xlink"
   width="100mm"
   height="230mm"
   viewBox="0 0 100 229.99999"
   version="1.1"
   id="svg8">
  <defs
     id="defs2">
    <linearGradient
       id="linearGradient927">
      <stop
         style="stop-color:#ff0000;stop-opacity:1;"
         offset="0"
         id="stop923" />
      <stop
         style="stop-color:#ff0000;stop-opacity:0;"
         offset="1"
         id="stop925" />
    </linearGradient>
    <linearGradient
       id="linearGradient65">
      <stop
         style="stop-color:#ff0000;stop-opacity:1;"
         offset="0"
         id="stop61" />
      <stop
         style="stop-color:#ff0000;stop-opacity:0;"
         offset="1"
         id="stop63" />
    </linearGradient>
    <marker
       orient="auto"
       refY="0"
       refX="0"
       id="DotS"
       style="overflow:visible">
      <path
         id="path2343"
         d="m -2.5,-1 c 0,2.76 -2.24,5 -5,5 -2.76,0 -5,-2.24 -5,-5 0,-2.76 2.24,-5 5,-5 2.76,0 5,2.24 5,5 z"
         style="fill:#000000;fill-opacity:1;fill-rule:evenodd;stroke:#000000;stroke-width:1pt;stroke-opacity:1"
         transform="matrix(0.2,0,0,0.2,1.48,0.2)" />
    </marker>
    <marker
       orient="auto"
       refY="0"
       refX="0"
       id="DotL"
       style="overflow:visible">
      <path
         id="path2337"
         d="m -2.5,-1 c 0,2.76 -2.24,5 -5,5 -2.76,0 -5,-2.24 -5,-5 0,-2.76 2.24,-5 5,-5 2.76,0 5,2.24 5,5 z"
         style="fill:#000000;fill-opacity:1;fill-rule:evenodd;stroke:#000000;stroke-width:1pt;stroke-opacity:1"
         transform="matrix(0.8,0,0,0.8,5.92,0.8)" />
    </marker>
    <marker
       orient="auto"
       refY="0"
       refX="0"
       id="Tail"
       style="overflow:visible">
      <g
         id="g2320"
         transform="scale(-1.2)"
         style="fill:#000000;fill-opacity:1;stroke:#000000;stroke-opacity:1">
        <path
           id="path2308"
           d="M -3.8048674,-3.9585227 0.54352094,0"
           style="fill:#000000;fill-opacity:1;fill-rule:evenodd;stroke:#000000;stroke-width:0.8;stroke-linecap:round;stroke-opacity:1" />
        <path
           id="path2310"
           d="M -1.2866832,-3.9585227 3.0617053,0"
           style="fill:#000000;fill-opacity:1;fill-rule:evenodd;stroke:#000000;stroke-width:0.8;stroke-linecap:round;stroke-opacity:1" />
        <path
           id="path2312"
           d="M 1.3053582,-3.9585227 5.6537466,0"
           style="fill:#000000;fill-opacity:1;fill-rule:evenodd;stroke:#000000;stroke-width:0.8;stroke-linecap:round;stroke-opacity:1" />
        <path
           id="path2314"
           d="M -3.8048674,4.1775838 0.54352094,0.21974226"
           style="fill:#000000;fill-opacity:1;fill-rule:evenodd;stroke:#000000;stroke-width:0.8;stroke-linecap:round;stroke-opacity:1" />
        <path
           id="path2316"
           d="M -1.2866832,4.1775838 3.0617053,0.21974226"
           style="fill:#000000;fill-opacity:1;fill-rule:evenodd;stroke:#000000;stroke-width:0.8;stroke-linecap:round;stroke-opacity:1" />
        <path
           id="path2318"
           d="M 1.3053582,4.1775838 5.6537466,0.21974226"
           style="fill:#000000;fill-opacity:1;fill-rule:evenodd;stroke:#000000;stroke-width:0.8;stroke-linecap:round;stroke-opacity:1" />
      </g>
    </marker>
    <linearGradient
       id="linearGradient933">
      <stop
         style="stop-color:#ffffff;stop-opacity:1;"
         offset="0"
         id="stop929" />
      <stop
         style="stop-color:#ffffff;stop-opacity:0;"
         offset="1"
         id="stop931" />
    </linearGradient>
    <linearGradient
       xlink:href="#linearGradient933"
       id="linearGradient96"
       gradientUnits="userSpaceOnUse"
       gradientTransform="matrix(1.0984925,-0.05342732,0.05756955,1.0194541,-178.6853,21.552233)"
       x1="84.368385"
       y1="58.910015"
       x2="78.146568"
       y2="52.213169" />
    <linearGradient
       xlink:href="#linearGradient65"
       id="linearGradient977"
       gradientUnits="userSpaceOnUse"
       gradientTransform="translate(112.63114,-46.007512)"
       x1="-52.066036"
       y1="137.52361"
       x2="-132.29167"
       y2="140.22917" />
    <linearGradient
       xlink:href="#linearGradient933"
       id="linearGradient979"
       gradientUnits="userSpaceOnUse"
       gradientTransform="matrix(1.1,0,0,1.1,-59.597749,-48.160493)"
       x1="90.544289"
       y1="175.31343"
       x2="92.709061"
       y2="173.62971" />
    <linearGradient
       xlink:href="#linearGradient933"
       id="linearGradient981"
       gradientUnits="userSpaceOnUse"
       gradientTransform="matrix(1.099623,-0.02879465,0.02879465,1.099623,-64.173019,-32.675895)"
       x1="92.709122"
       y1="117.42828"
       x2="72.296402"
       y2="118.56417" />
    <linearGradient
       xlink:href="#linearGradient933"
       id="linearGradient983"
       gradientUnits="userSpaceOnUse"
       gradientTransform="matrix(1.0984925,-0.05342732,0.05756955,1.0194541,-66.369749,-25.434575)"
       x1="84.368385"
       y1="58.910015"
       x2="81.97168"
       y2="49.187325" />
    <linearGradient
       xlink:href="#linearGradient927"
       id="linearGradient929"
       x1="155.13203"
       y1="171.2796"
       x2="48.442719"
       y2="162.05243"
       gradientUnits="userSpaceOnUse"
       gradientTransform="translate(-88.150495,25.797914)" />
    <linearGradient
       xlink:href="#linearGradient933"
       id="linearGradient910"
       x1="39.071358"
       y1="178.34416"
       x2="30.99757"
       y2="203.43057"
       gradientUnits="userSpaceOnUse"
       gradientTransform="translate(-0.50973474,0.71362863)" />
  </defs>
  <metadata
     id="metadata5">
    <rdf:RDF>
      <cc:Work
         rdf:about="">
        <dc:format>image/svg+xml</dc:format>
        <dc:type
           rdf:resource="http://purl.org/dc/dcmitype/StillImage" />
        <dc:title></dc:title>
      </cc:Work>
    </rdf:RDF>
  </metadata>
  <g
     id="layer1">
    <circle
       style="fill:#ffffff;fill-opacity:1;fill-rule:evenodd;stroke:none;stroke-width:0.55;stroke-linecap:butt;stroke-linejoin:round;stroke-miterlimit:4;stroke-dasharray:none;stroke-opacity:0.967442;paint-order:stroke fill markers"
       id="path895-0"
       cx="49.750114"
       cy="195.49713"
       r="23.813715" />
    <path
       id="path876-4-2"
       style="fill:#ffffff;fill-opacity:1;stroke:none;stroke-width:0.4;stroke-linecap:butt;stroke-linejoin:miter;stroke-miterlimit:4;stroke-dasharray:none;stroke-opacity:0.968627"
       d="M 69.99547,33.367496 60.95241,144.49248 c -0.67713,3.75296 -1.32292,6.61461 -5.95233,7.67278 -1.86855,0.31352 -3.45605,0.31352 -5.30813,0.31352 -1.85209,0 -3.42302,-0.11679 -5.191813,-0.31352 -4.61617,-1.04353 -5.241207,-4.2402 -5.95233,-7.67276 L 29.504747,33.367496 c -0.44582,-6.085417 0.80119,-8.056313 3.04745,-11.495921 l 4.58771,-7.024963 0.952,-1.096922 c 1.15139,-1.326664 2.92695,-2.563144 5.83737,-3.092464 l 5.820833,0.0049 v 0 m 20.24536,22.70542 c 0.44582,-6.08541 -0.80119,-8.05631 -3.04745,-11.49589 l -4.58771,-7.02494 -0.952,-1.09692 c -1.15139,-1.32667 -2.92695,-2.56315 -5.83737,-3.09247 l -5.82083,0.0048 v 0" />
    <circle
       style="fill:url(#linearGradient929);fill-opacity:1;fill-rule:evenodd;stroke:#7b0803;stroke-width:0.40005;stroke-linecap:butt;stroke-linejoin:miter;stroke-miterlimit:4;stroke-dasharray:none;stroke-opacity:0.967442;paint-order:normal"
       id="path895-0-9"
       cx="49.968918"
       cy="195.34741"
       r="23.813715" />
    <path
       style="fill:url(#linearGradient910);fill-opacity:1;stroke:none;stroke-width:0.291041px;stroke-linecap:butt;stroke-linejoin:miter;stroke-opacity:1"
       d="m 41.588515,176.04781 c -3.50302,2.18247 -8.49467,5.02128 -11.12194,12.78504 -1.80171,7.4444 0.23641,13.6092 2.18282,17.35855 -1.33368,-8.02864 -0.71735,-11.82217 0.51971,-16.57897 -0.0736,-0.0736 1.44453,-6.4155 8.41941,-13.56462 z"
       id="path934-2-7" />
    <path
       id="path876-4-2-5"
       style="fill:#ffffff;fill-opacity:1;stroke:none;stroke-width:0.4;stroke-linecap:butt;stroke-linejoin:miter;stroke-miterlimit:4;stroke-dasharray:none;stroke-opacity:0.968627"
       d="M 69.99547,33.367494 60.95241,144.49249 c -0.67713,3.75296 -1.32292,6.61461 -5.95233,7.67278 -1.86855,0.31352 -3.45605,0.31352 -5.30813,0.31352 -1.85209,0 -3.42302,-0.11679 -5.191813,-0.31352 -4.61617,-1.04353 -5.241207,-4.2402 -5.95233,-7.67276 L 29.504747,33.367494 c -0.44582,-6.085415 0.80119,-8.056311 3.04745,-11.495919 l 4.58771,-7.024963 0.952,-1.096922 c 1.15139,-1.326664 2.92695,-2.563144 5.83737,-3.092464 l 5.820833,0.0049 v 0 m 20.24536,22.705418 c 0.44582,-6.085408 -0.80119,-8.056308 -3.04745,-11.495888 l -4.58771,-7.02494 -0.952,-1.09692 c -1.15139,-1.32667 -2.92695,-2.56315 -5.83737,-3.09247 l -5.82083,0.0048 v 0" />
    <path
       id="path876-4-2-9-0"
       style="fill:url(#linearGradient977);fill-opacity:1;stroke:#7b0803;stroke-width:0.4;stroke-linecap:butt;stroke-linejoin:miter;stroke-miterlimit:4;stroke-dasharray:none;stroke-opacity:0.968627"
       d="m 69.995467,33.367489 -9.04306,111.125001 c -0.67713,3.75296 -1.32292,6.61461 -5.95233,7.67278 -1.86855,0.31352 -3.45605,0.31352 -5.30813,0.31352 -1.85209,0 -3.42302,-0.11679 -5.19181,-0.31352 -4.61617,-1.04353 -5.24121,-4.2402 -5.95233,-7.67276 L 29.504747,33.367489 c -0.44582,-6.085414 0.80119,-8.056314 3.04745,-11.495924 l 4.58771,-7.024961 0.952,-1.096922 c 1.15139,-1.326664 2.92695,-2.563144 5.83737,-3.092464 l 5.82083,0.0049 v 0 m 20.24536,22.705421 c 0.44582,-6.085414 -0.80119,-8.056314 -3.04745,-11.495894 l -4.58771,-7.024937 -0.952,-1.09692 c -1.15139,-1.32667 -2.92695,-2.56315 -5.83737,-3.09247 l -5.82083,0.0048 v 0" />
    <path
       style="opacity:0.97;fill:url(#linearGradient979);fill-opacity:1;stroke:none;stroke-width:0.2915;stroke-linecap:butt;stroke-linejoin:miter;stroke-miterlimit:20;stroke-dasharray:none;stroke-opacity:0.995327"
       d="m 48.085855,150.13809 c -5.70363,-1.48504 -7.02655,-5.45379 -8.34947,-10.74546 -0.26458,1.85208 0.79375,7.67292 1.92619,8.65997 1.24881,1.3942 5.22792,2.14858 6.42328,2.08549 z"
       id="path878-8-0-3" />
    <path
       style="fill:url(#linearGradient981);fill-opacity:1;stroke:none;stroke-width:0.2915;stroke-linecap:butt;stroke-linejoin:miter;stroke-miterlimit:4;stroke-dasharray:none;stroke-opacity:1"
       d="m 34.556665,67.889809 3.85681,49.013241 c 0.17485,-3.77877 -0.4645,-10.02749 -1.03536,-22.691911 -0.64451,-6.63234 -1.29959,-17.0515 -2.82145,-26.32133 z"
       id="path882-1-5-4" />
    <path
       style="fill:url(#linearGradient983);fill-opacity:1;stroke:none;stroke-width:0.280375px;stroke-linecap:butt;stroke-linejoin:miter;stroke-opacity:1"
       d="m 37.547695,18.414755 c -2.21082,2.42991 -5.29167,6.61458 -5.93007,12.650524 -0.0767,5.53167 0.71043,12.01901 1.50418,18.36901 0.19033,-6.12192 -0.50673,-14.17226 -0.22736,-18.12546 0.6845,-3.633654 0.6845,-6.279494 4.65325,-12.894074 z"
       id="path880-8-3-0-4" />
  </g>
</svg>
