<?xml version="1.0" ?><!DOCTYPE svg  PUBLIC '-//W3C//DTD SVG 1.1//EN'  'http://www.w3.org/Graphics/SVG/1.1/DTD/svg11.dtd'><svg enable-background="new 0 0 48 48" height="48px" id="_x3C_Layer_x3E_" version="1.1" viewBox="0 0 48 48" width="48px" xml:space="preserve" xmlns="http://www.w3.org/2000/svg" xmlns:xlink="http://www.w3.org/1999/xlink"><g id="question_mark_x2C__question"><g><path d="M24,46C11.869,46,2,36.131,2,24S11.869,2,24,2s22,9.869,22,22S36.131,46,24,46z M24,3    C12.42,3,3,12.42,3,24s9.42,21,21,21s21-9.42,21-21S35.58,3,24,3z" fill="#546E7A"/></g><g id="question"><g><path d="M24,42c-1.93,0-3.5-1.57-3.5-3.5S22.07,35,24,35s3.5,1.57,3.5,3.5c0,0.373-0.059,0.74-0.174,1.091     c-0.087,0.263-0.37,0.406-0.631,0.319c-0.263-0.086-0.405-0.369-0.319-0.631c0.083-0.251,0.124-0.513,0.124-0.779     c0-1.378-1.122-2.5-2.5-2.5s-2.5,1.122-2.5,2.5S22.622,41,24,41c0.396,0,0.776-0.09,1.128-0.269     c0.247-0.126,0.546-0.026,0.672,0.221c0.125,0.246,0.026,0.547-0.221,0.672C25.086,41.874,24.555,42,24,42z" fill="#546E7A"/></g><g><path d="M24,33c-1.548,0-2.808-1.257-2.808-2.801v-0.767c0-2.868,0.836-4.948,2.631-6.544     c0.607-0.541,1.258-1.005,1.832-1.415c1.946-1.395,3.229-2.314,3.229-5.081c0-2.771-1.773-4.209-3.432-4.631     c-1.985-0.503-4.781,0.192-6.68,3.669c-0.74,1.355-2.448,1.858-3.807,1.121c-0.66-0.357-1.14-0.95-1.352-1.668     c-0.212-0.718-0.131-1.475,0.228-2.132c2.831-5.189,7.931-7.711,12.996-6.418c4.583,1.163,7.662,5.205,7.662,10.06     c0,5.642-3.219,7.947-5.57,9.631c-0.514,0.368-0.998,0.714-1.37,1.045c-0.318,0.283-0.753,0.67-0.753,2.364v0.767     C26.808,31.743,25.548,33,24,33z M24.252,10.612c0.507,0,0.995,0.064,1.447,0.18c2.023,0.514,4.185,2.255,4.185,5.6     c0,3.279-1.608,4.432-3.644,5.891c-0.559,0.399-1.186,0.847-1.753,1.352c-1.566,1.394-2.296,3.235-2.296,5.797v0.767     C22.192,31.192,23.003,32,24,32s1.808-0.808,1.808-1.801v-0.767c0-1.976,0.562-2.642,1.088-3.111     c0.412-0.367,0.917-0.728,1.451-1.11c2.297-1.646,5.154-3.691,5.154-8.819c0-4.389-2.776-8.042-6.909-9.09     c-4.605-1.174-9.266,1.153-11.871,5.928c-0.23,0.422-0.283,0.909-0.146,1.37c0.137,0.462,0.445,0.843,0.87,1.073     c0.877,0.475,1.976,0.151,2.452-0.722C19.65,11.739,22.127,10.612,24.252,10.612z" fill="#546E7A"/></g></g></g></svg>